<svg version="1.2" baseProfile="tiny-ps" xmlns="http://www.w3.org/2000/svg" viewBox="0 0 208 194" width="208" height="194">
	<title>AdobeStock_213395242-ai</title>
	<style>
		tspan { white-space:pre }
		.s0 { fill: #181a2c } 
	</style>
	<g id="Logo">
		<path id="Fox 23 " fill-rule="evenodd" class="s0" d="m203.62 107c0.14 0.63 0.2 1.27 0.19 1.92c-0.05 2.61-1.34 5.09-3.44 6.63l-91.46 67.21c-0.11 0.08-0.24 0.16-0.37 0.24c-0.63 0.42-1.29 0.74-1.96 0.96c-0.08 0.03-0.2 0.06-0.3 0.09c-0.02 0.01-0.05 0.01-0.07 0.02c-0.02 0.01-0.05 0.02-0.07 0.02c-0.58 0.19-1.41 0.31-2.21 0.31c-0.81 0-1.63-0.13-2.45-0.38c-0.86-0.28-1.53-0.6-2.16-1.01c-0.08-0.05-0.16-0.1-0.24-0.15l-91.61-67.3c-1.57-1.16-2.69-2.84-3.17-4.71c-0.16-0.62-0.25-1.27-0.26-1.92c-0.05-2.61 1.14-5.13 3.18-6.76c0 0 0 0 0 0l21.04-16.74l-11.68-67.04c-0.56-3.23 0.82-6.52 3.51-8.38c2.68-1.86 6.24-1.99 9.07-0.32l46.77 27.62h56l46.77-27.62c1.41-0.83 3.01-1.22 4.59-1.16c1.58 0.06 3.14 0.56 4.49 1.49c2.69 1.85 4.07 5.14 3.51 8.36l-11.68 67.05l21.04 16.74c0 0 0 0 0 0c0.06 0.05 0.1 0.12 0.16 0.17c0.44 0.37 0.85 0.76 1.2 1.21c0.79 1.01 1.35 2.2 1.62 3.45zm-192.08 1.79c0.01 0.28 0.14 0.55 0.38 0.72l75.09 55.17l-55.33-72.38l-19.79 15.74c-0.23 0.18-0.36 0.45-0.35 0.75zm184.78-0.01c0.01-0.28-0.12-0.56-0.35-0.74l-19.78-15.74l-55.34 72.39l75.09-55.18c0.23-0.17 0.37-0.44 0.38-0.73zm-12.42-91.68c0.06-0.35-0.09-0.71-0.38-0.91c-0.3-0.21-0.69-0.22-1-0.04l-29.16 17.22l-17.06 10.08l-25.34 121.83l61.04-79.84l11.9-68.34zm-55.55 27.71h-48.83l24.42 117.41l24.42-117.41zm-104.38-27.71l11.9 68.33l61.03 79.84l-25.33-121.82l-46.22-27.3c-0.15-0.09-0.32-0.13-0.48-0.13c-0.18 0-0.35 0.05-0.51 0.16c-0.3 0.21-0.45 0.57-0.39 0.93z" />
	</g>
</svg>